HIERARCHY
ROOT root
{
	OFFSET 0.000000 0.000000 0.000000
	CHANNELS 6 Xposition Yposition Zposition Zrotation Yrotation Xrotation
	JOINT lhip
	{
		OFFSET 0.058581 -0.082280 -0.017664
		CHANNELS 3 Zrotation Yrotation Xrotation
		JOINT lknee
		{
			OFFSET 0.043451 -0.386469 0.008037
			CHANNELS 3 Zrotation Yrotation Xrotation
			JOINT lankle
			{
				OFFSET -0.014790 -0.426874 -0.037428
				CHANNELS 3 Zrotation Yrotation Xrotation
				JOINT ltoe
				{
					OFFSET 0.041054 -0.060286 0.122042
					CHANNELS 3 Zrotation Yrotation Xrotation
					End Site
					{
						OFFSET 0.000000 0.000000 0.000000
					}
				}
			}
		}
	}
	JOINT rhip
	{
		OFFSET -0.060310 -0.090513 -0.013543
		CHANNELS 3 Zrotation Yrotation Xrotation
		JOINT rknee
		{
			OFFSET -0.043257 -0.383688 -0.004843
			CHANNELS 3 Zrotation Yrotation Xrotation
			JOINT rankle
			{
				OFFSET 0.019056 -0.420046 -0.034562
				CHANNELS 3 Zrotation Yrotation Xrotation
				JOINT rtoe
				{
					OFFSET -0.034840 -0.062106 0.130323
					CHANNELS 3 Zrotation Yrotation Xrotation
					End Site
					{
						OFFSET 0.000000 0.000000 0.000000
					}
				}
			}
		}
	}
	JOINT lowerback
	{
		OFFSET 0.004439 0.124404 -0.038385
		CHANNELS 3 Zrotation Yrotation Xrotation
		JOINT upperback
		{
			OFFSET 0.004488 0.137956 0.026820
			CHANNELS 3 Zrotation Yrotation Xrotation
			JOINT chest
			{
				OFFSET -0.002265 0.056032 0.002855
				CHANNELS 3 Zrotation Yrotation Xrotation
				JOINT lowerneck
				{
					OFFSET -0.013390 0.211636 -0.033468
					CHANNELS 3 Zrotation Yrotation Xrotation
					JOINT upperneck
					{
						OFFSET 0.010113 0.088937 0.050410
						CHANNELS 3 Zrotation Yrotation Xrotation
						End Site
						{
							OFFSET 0.000000 0.000000 0.000000
						}
					}
				}
				JOINT lclavicle
				{
					OFFSET 0.071702 0.114000 -0.018898
					CHANNELS 3 Zrotation Yrotation Xrotation
					JOINT lshoulder
					{
						OFFSET 0.122921 0.045205 -0.019046
						CHANNELS 3 Zrotation Yrotation Xrotation
						JOINT lelbow
						{
							OFFSET 0.255332 -0.015649 -0.022946
							CHANNELS 3 Zrotation Yrotation Xrotation
							JOINT lwrist
							{
								OFFSET 0.265709 0.012698 -0.007375
								CHANNELS 3 Zrotation Yrotation Xrotation
								End Site
								{
									OFFSET 0.000000 0.000000 0.000000
								}
							}
						}
					}
				}
				JOINT rclavicle
				{
					OFFSET -0.082954 0.112472 -0.023707
					CHANNELS 3 Zrotation Yrotation Xrotation
					JOINT rshoulder
					{
						OFFSET -0.113228 0.046853 -0.008472
						CHANNELS 3 Zrotation Yrotation Xrotation
						JOINT relbow
						{
							OFFSET -0.260127 -0.014369 -0.031269
							CHANNELS 3 Zrotation Yrotation Xrotation
							JOINT rwrist
							{
								OFFSET -0.269108 0.006794 -0.006027
								CHANNELS 3 Zrotation Yrotation Xrotation
								End Site
								{
									OFFSET 0.000000 0.000000 0.000000
								}
							}
						}
					}
				}
			}
		}
	}
}
MOTION
Frames: 10
Frame Time: 0.033333
-0.002364 0.294944 0.369604 173.076558 -4.290937 28.917197 29.056165 22.760689 -51.824949 -14.117786 2.340847 107.284598 0.223586 4.448956 -16.096640 0.000000 -0.000000 0.000000 -17.293241 -20.162486 -56.431725 -5.679479 -16.775457 130.001179 0.216135 6.831436 -22.830371 0.000000 -0.000000 0.000000 2.408399 -2.850505 75.720528 -1.752581 -5.704642 -5.108646 -2.193399 -6.231790 5.056755 0.579832 4.664402 22.801321 6.744750 -1.826236 21.526821 -20.704613 -10.536178 5.363807 -43.679095 -0.526244 -7.937160 5.895131 -18.587861 14.949618 -9.269327 -0.819184 -5.903034 22.678192 11.513618 4.829003 65.145249 2.419600 -9.016536 -5.460761 2.212181 -8.494685 -12.559462 13.343909 10.350421 
0.000626 0.308460 0.373575 173.491402 -5.159551 29.177321 29.170762 22.763586 -50.742753 -14.117677 2.526222 108.254726 0.456614 4.795099 -17.429888 0.000000 -0.000000 0.000000 -17.721872 -19.102450 -56.536811 -5.429794 -16.316195 130.831837 0.562320 6.402132 -23.604017 0.000000 -0.000000 0.000000 2.001938 -3.025716 75.097037 -0.996610 -6.148962 -5.199245 -1.953665 -6.577779 4.640782 0.441163 5.500910 23.366176 6.076289 -1.619687 21.495673 -19.362670 -12.002933 5.384960 -39.819348 -1.679965 -7.999304 4.205137 -20.295992 14.252397 -10.224117 -1.814271 -7.635349 22.573255 11.259272 4.549623 64.452899 1.093990 -8.350847 -5.991831 2.008072 -8.756305 -12.112885 13.096827 11.108691 
0.002503 0.322828 0.378012 173.814673 -6.144289 29.290283 29.099394 22.808917 -49.380637 -14.359652 2.655445 109.385108 0.885340 5.647805 -18.937114 0.000000 -0.000000 0.000000 -17.740459 -17.752950 -56.644391 -4.642146 -15.565793 131.809096 0.094003 6.234174 -24.604298 0.000000 -0.000000 0.000000 1.418674 -3.477641 74.402425 -0.337820 -6.298562 -5.193226 -1.643484 -6.574527 4.913943 0.240637 7.099473 23.529653 5.074378 -0.523694 21.528698 -17.918646 -13.663992 4.435359 -35.737411 -3.430472 -9.178605 3.646405 -20.259637 12.653279 -11.618789 -2.407294 -7.237906 22.282764 10.676212 3.450011 63.423922 -0.993210 -8.356577 -6.253426 2.704974 -8.362032 -11.464859 13.298128 12.049775 
0.003237 0.337234 0.384882 173.855251 -6.816732 28.623398 29.090518 22.563880 -47.078171 -14.780223 2.200336 110.390759 1.045275 6.695207 -20.764781 0.000000 -0.000000 0.000000 -17.987007 -15.772779 -55.407095 -3.829641 -15.035920 132.122257 0.238292 5.069535 -25.509456 0.000000 -0.000000 0.000000 0.469211 -5.021132 74.347979 0.167363 -6.324124 -5.011385 -1.613731 -6.471271 5.402274 -0.371440 8.316146 22.856849 3.272243 -0.528936 22.420419 -16.910315 -14.761031 3.535647 -30.864124 -4.685464 -10.765448 2.660544 -20.450753 11.498467 -9.329657 -2.786867 -5.179880 22.287296 10.711256 3.306906 62.235348 -1.914228 -7.724540 -6.632734 2.448330 -8.496660 -14.211940 14.448243 12.849984 
0.001715 0.354634 0.391365 173.981963 -7.859746 28.394346 28.860225 22.163290 -44.862098 -14.713996 2.200731 111.658017 1.447924 8.344208 -22.531837 0.000000 -0.000000 0.000000 -18.352432 -13.841152 -55.017109 -3.033142 -14.253781 132.633291 0.425613 2.834564 -25.895711 0.000000 -0.000000 0.000000 -0.356570 -6.452481 74.098039 0.740908 -6.470304 -5.305370 -1.653970 -6.664397 5.957423 -1.105822 9.358563 22.410777 1.657233 -0.279997 23.592817 -15.711847 -15.292306 2.957121 -26.356744 -5.403570 -11.468645 0.861192 -20.976965 11.253331 -5.054609 -3.719107 -3.562618 22.053796 10.283673 2.853127 60.537840 -3.080770 -6.410444 -6.751301 2.576914 -9.297372 -16.159967 14.889662 12.862515 
-0.001088 0.373398 0.398748 173.820801 -9.003036 28.204891 28.649282 21.830851 -42.352686 -14.679275 2.228950 113.027191 1.658689 10.215331 -24.332648 0.000000 -0.000000 0.000000 -18.881622 -11.477996 -54.140984 -2.167828 -13.807234 132.915367 0.938749 0.688091 -26.929385 0.000000 -0.000000 0.000000 -1.266372 -7.696585 74.440935 1.449331 -6.301960 -5.820550 -1.324592 -6.867487 6.184184 -2.094562 9.624995 21.849548 0.043234 0.052420 24.722907 -14.839599 -16.003348 3.163221 -23.102214 -5.492928 -11.561081 0.588628 -21.614678 10.797985 0.834802 -5.217028 -1.169003 21.362237 9.918436 2.241816 58.180842 -4.540415 -5.842139 -6.587699 2.911025 -9.190633 -16.051282 15.504028 13.425110 
-0.004704 0.393567 0.407311 173.247410 -9.761825 28.208690 28.819942 21.521353 -39.688132 -13.821756 1.651142 114.426334 1.819670 12.650794 -26.293905 0.000000 -0.000000 0.000000 -18.812999 -9.180777 -52.620447 -1.383124 -13.413192 132.863616 0.741912 -1.675461 -27.546403 0.000000 -0.000000 0.000000 -2.136188 -9.070210 75.030271 2.417656 -5.763942 -6.241627 -0.732219 -7.032856 6.577688 -3.635403 9.510766 21.735545 -1.692020 1.165066 24.772922 -14.242636 -16.453043 3.073233 -20.417428 -5.820134 -11.603587 0.417708 -21.351704 10.029294 6.298169 -6.159126 1.461913 20.537219 9.575583 0.939252 55.214326 -5.904247 -5.062718 -6.393307 3.052475 -9.289298 -15.590976 15.895640 14.772445 
-0.010097 0.415875 0.414405 172.819682 -10.717618 28.873279 28.995714 20.727187 -37.273600 -12.893546 2.344346 115.798443 1.728082 14.540657 -28.297626 0.000000 -0.000000 0.000000 -19.269796 -6.998707 -51.946561 -0.779893 -13.434884 133.403060 0.471040 -4.763728 -28.946804 0.000000 -0.000000 0.000000 -2.703830 -10.344603 73.403629 3.492168 -5.951963 -4.792537 -0.736508 -7.121657 6.970711 -4.444178 9.927687 21.216844 -3.680948 1.544687 25.136447 -13.578986 -16.686722 2.822257 -18.015398 -6.125118 -12.142882 0.282161 -20.731229 9.214445 8.362235 -7.111334 4.019313 20.578388 9.630190 0.500501 51.902313 -6.166431 -4.584621 -7.017538 2.803146 -10.186664 -14.214243 16.347889 16.089761 
-0.016256 0.440947 0.421554 172.338932 -11.645548 29.523176 29.026048 20.661662 -34.583969 -12.587893 2.694824 117.219074 0.777718 14.343536 -30.157795 0.000000 -0.000000 0.000000 -20.152719 -5.199358 -51.127155 -0.386106 -12.635679 134.252251 0.862400 -5.305011 -29.764398 0.000000 -0.000000 0.000000 -3.013245 -11.341724 73.057226 4.797335 -5.918907 -5.282817 -0.346846 -7.416171 7.177704 -5.356771 9.792671 21.236089 -5.717987 2.223399 25.954483 -13.474309 -16.509922 2.669130 -17.259927 -6.827187 -13.190812 1.143716 -20.115780 8.804139 6.547125 -8.325479 7.160861 20.023335 8.415158 -0.341350 47.874941 -6.343683 -5.217036 -7.148976 2.607014 -9.808768 -10.579698 16.429922 18.674802 
-0.022990 0.466068 0.428855 171.595975 -12.314520 30.016834 29.156458 21.448385 -31.944065 -13.014529 2.553950 118.838436 0.255429 14.338512 -32.017540 0.000000 -0.000000 0.000000 -20.870225 -3.961341 -49.840168 0.617633 -12.060664 135.084098 1.156543 -6.012932 -30.577410 0.000000 -0.000000 0.000000 -3.256605 -12.513201 73.188280 5.886642 -5.906894 -5.506488 0.059019 -7.632110 7.317535 -6.333846 9.263851 20.836392 -7.304598 3.266411 26.210197 -13.260758 -16.297213 2.651488 -17.055495 -6.934949 -13.326347 1.486513 -20.633716 8.621448 5.757155 -8.514777 8.124739 19.351552 8.042587 -1.166423 43.589308 -6.821956 -5.787352 -6.833737 2.842518 -10.128184 -6.756745 15.608246 21.890761 
